<svg width="130" height="130" viewBox="0 0 130 130" fill="none" xmlns="http://www.w3.org/2000/svg">
<path d="M65 77.1879C60.3074 77.192 55.6869 76.0331 51.5517 73.8149C47.4165 71.5966 43.8955 68.3881 41.3034 64.4764L48.0716 59.9792C49.9243 62.773 52.4398 65.0649 55.3936 66.6504C58.3474 68.2358 61.6476 69.0655 65 69.0655C68.3524 69.0655 71.6527 68.2358 74.6064 66.6504C77.5602 65.0649 80.0757 62.773 81.9284 59.9792L88.6966 64.4764C86.1046 68.3881 82.5835 71.5966 78.4483 73.8149C74.3131 76.0331 69.6926 77.192 65 77.1879ZM81.25 32.5004C79.643 32.5004 78.0721 32.9769 76.736 33.8697C75.3998 34.7625 74.3584 36.0315 73.7435 37.5161C73.1285 39.0008 72.9676 40.6344 73.2811 42.2105C73.5946 43.7866 74.3685 45.2344 75.5048 46.3707C76.6411 47.507 78.0888 48.2808 79.6649 48.5943C81.241 48.9078 82.8747 48.7469 84.3593 48.1319C85.844 47.517 87.1129 46.4756 88.0057 45.1394C88.8985 43.8033 89.375 42.2324 89.375 40.6254C89.3859 39.5554 89.1831 38.494 88.7787 37.5033C88.3742 36.5126 87.7761 35.6126 87.0195 34.856C86.2628 34.0993 85.3628 33.5012 84.3721 33.0968C83.3814 32.6923 82.32 32.4896 81.25 32.5004ZM48.75 32.5004C47.143 32.5004 45.5721 32.9769 44.236 33.8697C42.8998 34.7625 41.8584 36.0315 41.2435 37.5161C40.6285 39.0008 40.4676 40.6344 40.7811 42.2105C41.0946 43.7866 41.8685 45.2344 43.0048 46.3707C44.1411 47.507 45.5888 48.2808 47.1649 48.5943C48.741 48.9078 50.3747 48.7469 51.8593 48.1319C53.344 47.517 54.6129 46.4756 55.5057 45.1394C56.3985 43.8033 56.875 42.2324 56.875 40.6254C56.8859 39.5554 56.6831 38.494 56.2787 37.5033C55.8742 36.5126 55.2761 35.6126 54.5195 34.856C53.7628 34.0993 52.8628 33.5012 51.8721 33.0968C50.8814 32.6923 49.82 32.4896 48.75 32.5004Z" fill="#333"/>
<path d="M72.0525 121.875L65 117.812L81.25 89.375H105.625C106.692 89.3766 107.75 89.1675 108.736 88.7598C109.723 88.352 110.619 87.7536 111.374 86.9988C112.129 86.244 112.727 85.3477 113.135 84.3612C113.543 83.3747 113.752 82.3174 113.75 81.25V24.375C113.752 23.3076 113.543 22.2503 113.135 21.2638C112.727 20.2773 112.129 19.381 111.374 18.6262C110.619 17.8714 109.723 17.273 108.736 16.8652C107.75 16.4575 106.692 16.2484 105.625 16.25H24.375C23.3076 16.2484 22.2503 16.4575 21.2638 16.8652C20.2773 17.273 19.381 17.8714 18.6262 18.6262C17.8714 19.381 17.273 20.2773 16.8652 21.2638C16.4575 22.2503 16.2484 23.3076 16.25 24.375V81.25C16.2484 82.3174 16.4575 83.3747 16.8652 84.3612C17.273 85.3477 17.8714 86.244 18.6262 86.9988C19.381 87.7536 20.2773 88.352 21.2638 88.7598C22.2503 89.1675 23.3076 89.3766 24.375 89.375H60.9375V97.5H24.375C20.0652 97.5 15.932 95.7879 12.8845 92.7405C9.83705 89.693 8.125 85.5598 8.125 81.25V24.375C8.12447 22.2409 8.54442 20.1275 9.36087 18.1558C10.1773 16.184 11.3743 14.3924 12.8833 12.8833C14.3924 11.3743 16.184 10.1773 18.1558 9.36087C20.1275 8.54442 22.2409 8.12447 24.375 8.125H105.625C107.759 8.12447 109.872 8.54442 111.844 9.36087C113.816 10.1773 115.608 11.3743 117.117 12.8833C118.626 14.3924 119.823 16.184 120.639 18.1558C121.456 20.1275 121.876 22.2409 121.875 24.375V81.25C121.875 85.5598 120.163 89.693 117.115 92.7405C114.068 95.7879 109.935 97.5 105.625 97.5H85.9828L72.0525 121.875Z" fill="#333333"/>
</svg>
