<svg width="65" height="65" viewBox="0 0 65 65" fill="none" xmlns="http://www.w3.org/2000/svg">
<rect y="0.417969" width="64.1667" height="64.1667" fill="#333"/>
<path d="M58.9681 2.82422H6.0306C5.1797 2.82422 4.36364 3.16224 3.76196 3.76392C3.16029 4.3656 2.82227 5.18165 2.82227 6.03255V58.9701C2.82227 59.821 3.16029 60.637 3.76196 61.2387C4.36364 61.8404 5.1797 62.1784 6.0306 62.1784H58.9681C59.819 62.1784 60.6351 61.8404 61.2367 61.2387C61.8384 60.637 62.1764 59.821 62.1764 58.9701V6.03255C62.1764 5.18165 61.8384 4.3656 61.2367 3.76392C60.6351 3.16224 59.819 2.82422 58.9681 2.82422Z" stroke="#FFE600" stroke-linecap="round" stroke-linejoin="round"/>
<path d="M37.319 28.7812C35.4164 28.5005 33.6855 29.5127 33.6855 32.3136V32.9761C33.6853 33.5443 33.7971 34.107 34.0144 34.632C34.2318 35.157 34.5504 35.634 34.9522 36.0358C35.354 36.4376 35.831 36.7563 36.3561 36.9736C36.8811 37.191 37.4437 37.3028 38.012 37.3025C38.58 37.3025 39.1426 37.1906 39.6674 36.9732C40.1922 36.7557 40.669 36.437 41.0706 36.0353C41.4723 35.6335 41.7908 35.1565 42.008 34.6316C42.2253 34.1067 42.337 33.5442 42.3368 32.9761V30.1656C42.337 29.5975 42.2253 29.035 42.008 28.5101C41.7908 27.9852 41.4723 27.5082 41.0706 27.1064C40.669 26.7047 40.1922 26.386 39.6674 26.1685C39.1426 25.9511 38.58 25.8392 38.012 25.8392C35.9554 25.8392 35.1229 26.2755 33.9759 27.5235M21.3302 20V37.3025M21.3302 30.1656C21.33 29.5975 21.4417 29.035 21.659 28.5101C21.8762 27.9852 22.1948 27.5082 22.5964 27.1064C22.998 26.7047 23.4748 26.386 23.9997 26.1685C24.5245 25.9511 25.087 25.8392 25.6551 25.8392C26.2231 25.8392 26.7857 25.9511 27.3105 26.1685C27.8353 26.386 28.3121 26.7047 28.7137 27.1064C29.1154 27.5082 29.4339 27.9852 29.6511 28.5101C29.8684 29.035 29.9801 29.5975 29.9799 30.1656V37.3025M10.2727 36.3352C11.062 36.9977 11.9154 37.3025 13.8307 37.3025H14.8013C16.3798 37.3025 17.6599 36.0192 17.6599 34.4359C17.6599 32.8542 16.3798 31.5709 14.8013 31.5709H12.8602C11.2801 31.5709 10 30.2875 10 28.7058C10 27.1225 11.2801 25.8392 12.8602 25.8392H13.8307C15.7445 25.8392 16.5979 26.144 17.3872 26.8065M45.7312 32.9761C45.731 33.5443 45.8428 34.107 46.0601 34.632C46.2775 35.157 46.5961 35.634 46.9979 36.0358C47.3997 36.4376 47.8767 36.7563 48.4017 36.9736C48.9267 37.191 49.4894 37.3028 50.0576 37.3025C50.6259 37.3028 51.1886 37.191 51.7136 36.9736C52.2386 36.7563 52.7156 36.4376 53.1174 36.0358C53.5192 35.634 53.8378 35.157 54.0552 34.632C54.2725 34.107 54.3843 33.5443 54.3841 32.9761V30.1656C54.3843 29.5974 54.2725 29.0347 54.0552 28.5097C53.8378 27.9847 53.5192 27.5077 53.1174 27.1059C52.7156 26.7041 52.2386 26.3854 51.7136 26.1681C51.1886 25.9507 50.6259 25.839 50.0576 25.8392C49.4896 25.8392 48.9271 25.9511 48.4022 26.1685C47.8774 26.386 47.4006 26.7047 46.999 27.1064C46.5973 27.5082 46.2788 27.9852 46.0616 28.5101C45.8443 29.035 45.7326 29.5975 45.7328 30.1656M45.7328 25.8392V52.5" stroke="#FFE600" stroke-linecap="round" stroke-linejoin="round"/>
<path d="M42 44L49 44" stroke="#FFE600" stroke-linecap="round"/>
<line x1="39.5" y1="43.5" x2="39.5" y2="52.5" stroke="#FFE600" stroke-linecap="round"/>
</svg>
