<svg width="130" height="105" viewBox="0 0 130 105" fill="none" xmlns="http://www.w3.org/2000/svg">
<g clip-path="url(#clip0_1172_340)">
<path d="M7.475 39.2285H122.525C126.648 39.2285 130 35.8573 130 31.7097C130 30.2182 129.553 28.7676 128.741 27.5417L113.384 4.37234C111.577 1.63452 108.55 0 105.28 0H24.7203C21.4703 0 18.4234 1.63452 16.6156 4.37234L1.25937 27.5213C0.446875 28.7676 0 30.2182 0 31.6893C0 35.8573 3.35156 39.2285 7.475 39.2285ZM13 45.7666V94.8022C13 100.217 17.3672 104.609 22.75 104.609H68.25C73.6328 104.609 78 100.217 78 94.8022V45.7666H65V78.457H26V45.7666H13ZM104 45.7666V98.0713C104 101.688 106.905 104.609 110.5 104.609C114.095 104.609 117 101.688 117 98.0713V45.7666H104Z" fill="#333333"/>
</g>
<defs>
<clipPath id="clip0_1172_340">
<rect width="130" height="104.609" fill="white"/>
</clipPath>
</defs>
</svg>
